<?xml version="1.0" encoding="UTF-8"?>
<svg width="34px" height="34px" viewBox="0 0 34 34" version="1.1" xmlns="http://www.w3.org/2000/svg" xmlns:xlink="http://www.w3.org/1999/xlink">
    <title>D84881D2-C44E-4B3A-A79E-83BF9F9B1CDA@1x</title>
    <g id="Index" stroke="none" stroke-width="1" fill="none" fill-rule="evenodd">
        <g id="Card/revisoes_planejadas" transform="translate(-11.000000, -11.000000)" fill="#2097C8" fill-rule="nonzero">
            <g id="Shape-2" transform="translate(11.000000, 11.000000)">
                <path d="M29.6548452,0.116231048 C29.2789399,-0.060647455 28.8403162,-0.0327192702 28.4878796,0.189896695 C28.1374663,0.41251266 27.9246286,0.799054928 27.9246286,1.21473965 L27.9246286,6.53566598 L26.7107254,7.14280043 L25.4968222,6.53566598 L25.4968222,1.21473965 C25.4968222,0.799054928 25.2839845,0.41251266 24.9335712,0.189491939 C24.5827531,-0.0339335391 24.1404878,-0.0614569676 23.7666056,0.115826292 C21.6782875,1.09776508 20.2207944,2.80705094 19.6721102,4.85754635 L9.68451951,4.85754635 C7.73984663,4.85754635 5.98777971,6.01312559 5.22180681,7.80133893 L2.5896601,13.9451348 C1.05730966,14.7627425 0,16.3591014 0,18.2145043 L0,20.6430421 C0,22.4328744 0.983666204,23.9822816 2.42780634,24.8245794 L2.42780634,29.1429244 C2.42780634,30.4818582 3.51667749,31.5714622 4.85561269,31.5714622 L9.71122538,31.5714622 C11.0501606,31.5714622 12.1390317,30.4818582 12.1390317,29.1429244 L12.1390317,25.5001177 L21.8551127,25.5001177 L21.8551127,29.1429244 C21.8551127,31.8216016 24.0332596,34 26.7107254,34 C29.3881912,34 31.5663381,31.8216016 31.5663381,29.1429244 L31.5655288,12.1075412 C33.2479986,10.7099177 34.3575061,8.08912066 33.8941997,5.43634786 C33.4867329,3.09968974 31.9810883,1.20988257 29.6548452,0.116231048 Z M7.45296084,8.75818282 C7.83655425,7.8636714 8.71177843,7.28608416 9.68451951,7.28608416 L19.4507752,7.28608416 C19.6126289,9.23781904 20.6408049,11.0920077 21.8547081,12.1075412 L21.8547081,13.3574287 L5.48279599,13.3574287 L7.45296084,8.75818282 Z M9.71284392,29.1429244 L4.85561269,29.1429244 L4.85561269,25.5001177 L9.71163001,25.5001177 L9.71284392,29.1429244 Z M4.85561269,23.0715799 C3.51667749,23.0715799 2.42780634,21.9819759 2.42780634,20.6430421 L2.42780634,18.2145043 C2.42780634,16.8751657 3.51667749,15.7859665 4.85561269,15.7859665 L21.8551127,15.7859665 L21.8551127,23.0715799 C15.5395791,23.0715799 11.2419573,23.0715799 4.85561269,23.0715799 Z M29.6216652,10.5427534 C29.3177848,10.7722502 29.1385317,11.1308643 29.1385317,11.5121447 L29.1385317,29.1429244 C29.1385317,30.4818582 28.0496606,31.5714622 26.7107254,31.5714622 C25.3717902,31.5714622 24.2829191,30.4818582 24.2829191,29.1429244 C24.2829191,23.5500018 24.2829191,24.5683687 24.2829191,11.5121447 C24.2829191,11.0381751 23.9879406,10.6123714 23.7026733,10.4698972 C22.3665706,9.46610159 21.7215834,7.77422026 21.8842464,6.19607544 C21.8842464,6.19567068 21.8842464,6.19567068 21.8842464,6.19567068 C21.9947116,5.13844723 22.4050108,4.27834009 23.0690159,3.55706436 L23.0690159,7.28608416 C23.0690159,7.74629207 23.3287912,8.16642911 23.7398997,8.37245007 L26.167706,9.58671897 C26.5092175,9.75752613 26.9122333,9.75752613 27.2537448,9.58671897 L29.6815511,8.37245007 C30.0930643,8.16683387 30.3524349,7.74629207 30.3524349,7.28608416 L30.3524349,3.55180253 C30.9557448,4.20143639 31.350668,4.98302081 31.5028105,5.85365161 C31.7860546,7.47591486 31.2130923,9.35074605 29.6216652,10.5427534 Z" id="Shape"></path>
            </g>
        </g>
    </g>
</svg>