<?xml version="1.0" encoding="UTF-8"?>
<svg width="21px" height="18px" viewBox="0 0 21 18" version="1.1" xmlns="http://www.w3.org/2000/svg" xmlns:xlink="http://www.w3.org/1999/xlink">
    <title>36CFB0B3-05C5-478F-9D56-460664F20A58@1x</title>
    <g id="Online-Sale-VW-#V1.0-[revisoes]" stroke="none" stroke-width="1" fill="none" fill-rule="evenodd">
        <g id="home" transform="translate(-520.000000, -349.000000)" fill="#7EA646" fill-rule="nonzero">
            <g id="Group-4" transform="translate(429.000000, 161.000000)">
                <g id="Group-7" transform="translate(91.000000, 185.000000)">
                    <path d="M10.4567901,3 C12.2427984,3 14.0288066,3.08709677 15.7860082,3.26129032 C16.4773663,3.31935484 17.0534979,3.78387097 17.255144,4.42258065 L17.255144,4.42258065 L18.8683128,8.9516129 L20.3950617,8.9516129 C20.6831276,8.9516129 20.9135802,9.18387097 21,9.47419355 L21,9.47419355 L21,10.6645161 C21,10.9548387 20.7695473,11.1870968 20.4814815,11.1870968 L20.4814815,11.1870968 L19.7613169,11.1870968 C19.9053498,11.6516129 19.9917695,12.116129 19.9917695,12.5806452 L19.9917695,12.5806452 L19.9917695,16.9354839 C19.9917695,17.0806452 19.9341564,17.2258065 19.8765432,17.3419355 C19.7613169,17.5451613 19.5884774,17.6903226 19.3868313,17.7483871 L19.3868313,17.7483871 L19.3868313,20.1290323 C19.3868313,20.1870968 19.3868313,20.2451613 19.3580247,20.3032258 L19.3580247,20.3032258 L19.3004115,20.4774194 C19.2139918,20.7096774 18.9835391,20.9129032 18.6954733,20.9709677 C18.6378601,21 18.5802469,21 18.5226337,21 L18.5226337,21 L16.8806584,21 C16.8230453,21 16.7654321,20.9709677 16.7078189,20.9709677 C16.6502058,20.9419355 16.5925926,20.9419355 16.5349794,20.9129032 C16.218107,20.7967742 16.0164609,20.4774194 16.0164609,20.1290323 L16.0164609,20.1290323 L16.0164609,17.8064516 L4.98353909,17.8064516 L4.98353909,20.1290323 C4.98353909,20.3322581 4.92592593,20.4774194 4.83950617,20.6225806 C4.82990398,20.6322581 4.81710105,20.6451613 4.80323121,20.6591398 L4.72427984,20.7387097 C4.66666667,20.7967742 4.58024691,20.8548387 4.52263374,20.883871 C4.40740741,20.9709677 4.26337449,21 4.11934156,21 L4.11934156,21 L2.47736626,21 C1.98765432,21 1.61316872,20.5935484 1.61316872,20.1290323 L1.61316872,20.1290323 L1.61316872,17.7483871 C1.26748971,17.6322581 1.00823045,17.3129032 1.00823045,16.9354839 L1.00823045,16.9354839 L1.00823045,12.5806452 C1.00823045,12.0870968 1.06584362,11.6225806 1.23868313,11.1870968 L1.23868313,11.1870968 L0.518518519,11.1870968 C0.230452675,11.1870968 0,10.9548387 0,10.6645161 L0,10.6645161 L0,9.47419355 C0,9.18387097 0.230452675,8.9516129 0.518518519,8.9516129 L0.518518519,8.9516129 L2.04526749,8.9516129 L3.62962963,4.42258065 C3.8600823,3.78387097 4.43621399,3.31935484 5.09876543,3.26129032 C6.88477366,3.08709677 8.67078189,3 10.4567901,3 Z M13.5419535,7 L9.13610693,11.1862387 L7.50185564,9.63385801 L6,11.0611978 L9.09229776,14 L15,8.38550715 L13.5419535,7 Z" id="Combined-Shape"></path>
                </g>
            </g>
        </g>
    </g>
</svg>