<?xml version="1.0" encoding="UTF-8"?>
<svg width="22px" height="24px" viewBox="0 0 22 24" version="1.1" xmlns="http://www.w3.org/2000/svg" xmlns:xlink="http://www.w3.org/1999/xlink">
    <title>9F5E0E6B-632E-4402-951C-74324334B16C@1x</title>
    <defs>
        <filter id="filter-1">
            <feColorMatrix in="SourceGraphic" type="matrix" values="0 0 0 0 0.113725 0 0 0 0 0.419608 0 0 0 0 0.650980 0 0 0 1.000000 0"></feColorMatrix>
        </filter>
        <filter id="filter-2">
            <feColorMatrix in="SourceGraphic" type="matrix" values="0 0 0 0 0.411765 0 0 0 0 0.788235 0 0 0 0 0.784314 0 0 0 1.000000 0"></feColorMatrix>
        </filter>
    </defs>
    <g id="Online-Sale-VW-#V1.0-[revisoes]" stroke="none" stroke-width="1" fill="none" fill-rule="evenodd">
        <g id="home" transform="translate(-1015.000000, -13.000000)">
            <g id="icon/vendas_menu" transform="translate(1015.000000, 13.000000)" filter="url(#filter-1)">
                <g filter="url(#filter-2)" id="Group">
                    <g transform="translate(10.806818, 12.000000) scale(-1, 1) translate(-10.806818, -12.000000) translate(-0.000000, 0.000000)">
                        <path d="M7.22727273,4.34318182 C7.86818182,4.34318182 8.38636364,3.825 8.38636364,3.18409091 C8.38636364,2.69318182 8.78863636,2.31818182 9.27954545,2.31818182 L18.4295455,2.31818182 C18.9204545,2.31818182 19.2954545,2.69318182 19.2954545,3.18409091 L19.2954545,20.8159091 C19.2954545,21.3068182 18.9204545,21.6818182 18.4295455,21.6818182 L9.27954545,21.6818182 C8.78863636,21.6818182 8.38636364,21.3068182 8.38636364,20.8159091 C8.38636364,20.175 7.86818182,19.6568182 7.22727273,19.6568182 C6.58636364,19.6568182 6.06818182,20.175 6.06818182,20.8159091 C6.06818182,22.5818182 7.51363636,24 9.27954545,24 L18.4295455,24 C20.1954545,24 21.6136364,22.5818182 21.6136364,20.8159091 L21.6136364,3.18409091 C21.6136364,1.41818182 20.1954545,0 18.4295455,0 L9.27954545,0 C7.51363636,0 6.06818182,1.41818182 6.06818182,3.18409091 C6.06818182,3.825 6.58636364,4.34318182 7.22727273,4.34318182 Z" id="Path" fill="#69C9C8" fill-rule="nonzero"></path>
                        <path d="M0.443181818,12.9068182 L4.83409091,17.2977273 C5.05909091,17.5227273 5.35909091,17.6386364 5.65227273,17.6386364 C5.94545455,17.6386364 6.24545455,17.5227273 6.47045455,17.2977273 C6.92045455,16.8477273 6.92045455,16.1113636 6.47045455,15.6613636 L3.96818182,13.1590909 L13.9167249,13.1590909 C14.557634,13.1590909 15.0758158,12.6409091 15.0758158,12 C15.0758158,11.3590909 14.557634,10.8409091 13.9167249,10.8409091 L3.71590909,10.8409091 L6.525,7.60227273 C6.94772727,7.11818182 6.89318182,6.38863636 6.40909091,5.96590909 C5.925,5.54318182 5.19545455,5.59772727 4.77272727,6.08181818 L0.381818182,11.1409091 C0.15,11.3522727 0,11.6590909 0,12 C0,12.3681818 0.170454545,12.6954545 0.443181818,12.9068182 Z" id="Path" fill="#69C9C8" fill-rule="nonzero"></path>
                    </g>
                </g>
            </g>
        </g>
    </g>
</svg>