<?xml version="1.0" encoding="UTF-8"?>
<svg width="24px" height="23px" viewBox="0 0 24 23" version="1.1" xmlns="http://www.w3.org/2000/svg" xmlns:xlink="http://www.w3.org/1999/xlink">
    <title>8EB07A4D-8AC5-4677-8F48-38AF58CB5BA0@1x</title>
    <defs>
        <filter id="filter-1">
            <feColorMatrix in="SourceGraphic" type="matrix" values="0 0 0 0 0.113725 0 0 0 0 0.419608 0 0 0 0 0.650980 0 0 0 1.000000 0"></feColorMatrix>
        </filter>
        <polygon id="path-2" points="0.77577931 0.72285876 19.5818483 0.72285876 19.5818483 9.93103448 0.77577931 9.93103448"></polygon>
        <polygon id="path-4" points="0 0.106325955 23.6645217 0.106325955 23.6645217 10.3431876 0 10.3431876"></polygon>
    </defs>
    <g id="Online-Sale-VW-#V1.0-[revisoes]" stroke="none" stroke-width="1" fill="none" fill-rule="evenodd">
        <g id="home" transform="translate(-287.000000, -14.000000)">
            <g id="icon/vendas_menu" transform="translate(287.000000, 14.000000)" filter="url(#filter-1)">
                <g id="Group-7" transform="translate(0.000000, -0.000000)">
                    <g id="Group-3" transform="translate(1.655172, 12.307531)">
                        <mask id="mask-3" fill="white">
                            <use xlink:href="#path-2"></use>
                        </mask>
                        <g id="Clip-2"></g>
                        <path d="M17.976331,1.52946207 L17.976331,8.3256 L13.2888828,8.3256 L13.2888828,2.13608276 C13.2888828,1.69497931 12.9272276,1.33332414 12.4861241,1.33332414 L7.87150345,1.33332414 C7.37577931,1.33332414 7.06874483,1.75042759 7.06874483,2.13608276 L7.06874483,8.3256 L2.38129655,8.3256 L2.38129655,1.5278069 C2.38129655,0.858289655 1.61164138,0.482565517 1.08446897,0.894703448 L1.08364138,0.894703448 C0.889986207,1.04697931 0.77577931,1.28035862 0.77577931,1.5278069 L0.77577931,9.12835862 C0.77577931,9.62408276 1.19205517,9.93111724 1.57853793,9.93111724 L7.65964138,9.93111724 C8.21991724,9.93111724 8.67426207,9.47677241 8.67426207,8.91649655 L8.67426207,2.93884138 L11.6833655,2.93884138 L11.6833655,8.91649655 C11.6833655,9.47677241 12.1377103,9.93111724 12.6979862,9.93111724 L18.7790897,9.93111724 C19.2226759,9.93111724 19.5818483,9.57194483 19.5818483,9.12835862 L19.5818483,1.52946207 C19.5818483,1.28284138 19.4676414,1.04863448 19.2731586,0.897186207 L19.2731586,0.897186207 C18.7459862,0.485048276 17.976331,0.860772414 17.976331,1.52946207" id="Fill-1" fill="#FFFFFF" mask="url(#mask-3)"></path>
                    </g>
                    <g id="Group-6" transform="translate(0.000000, 0.721324)">
                        <mask id="mask-5" fill="white">
                            <use xlink:href="#path-4"></use>
                        </mask>
                        <g id="Clip-5"></g>
                        <path d="M0.545710345,10.2931034 C0.792331034,10.3891034 1.04888276,10.3444138 1.26984828,10.1673103 L2.43095172,9.25117241 L2.43095172,9.276 L7.10681379,5.62303448 L7.1184,5.63875862 L11.8339862,1.96593103 L16.5470897,5.63710345 L16.5586759,5.62303448 L21.2370207,9.27848276 L21.2370207,9.25862069 L21.6317793,9.58634483 L22.5098483,10.2732414 C22.9021241,10.4478621 23.2778483,10.2724138 23.4847448,10.0017931 C23.7247448,9.68731034 23.7611586,9.20317241 23.3655724,8.88703448 L12.3264,0.294206897 C12.0781241,0.0459310345 11.5906759,0.0442758621 11.3515034,0.285931034 L0.3024,8.88703448 C0.0706758621,9.07158621 -0.0336,9.32896552 0.00943448276,9.61034483 C0.0549517241,9.91158621 0.270951724,10.1855172 0.545710345,10.2931034" id="Fill-4" fill="#FFFFFF" mask="url(#mask-5)"></path>
                    </g>
                </g>
            </g>
        </g>
    </g>
</svg>