<?xml version="1.0" encoding="UTF-8"?>
<svg width="23px" height="24px" viewBox="0 0 23 24" version="1.1" xmlns="http://www.w3.org/2000/svg" xmlns:xlink="http://www.w3.org/1999/xlink">
    <title>5E94E1FF-7D22-4C63-AC9E-D918BB2D75ED@1x</title>
    <defs>
        <filter id="filter-1">
            <feColorMatrix in="SourceGraphic" type="matrix" values="0 0 0 0 0.266667 0 0 0 0 0.286275 0 0 0 0 0.325490 0 0 0 1.000000 0"></feColorMatrix>
        </filter>
    </defs>
    <g id="Online-Sale-VW-#V1.0-[revisoes]" stroke="none" stroke-width="1" fill="none" fill-rule="evenodd">
        <g id="home" transform="translate(-965.000000, -13.000000)">
            <g id="Group-3" transform="translate(965.000000, 13.000000)">
                <g id="icon/notificações" filter="url(#filter-1)">
                    <g id="Group-8" fill="#443F44" fill-rule="nonzero">
                        <g id="Shape">
                            <path d="M10.6666667,0 C12.3615683,0 13.7460063,1.32912866 13.8237199,2.99628614 C16.7767933,4.24000336 18.7654321,7.14145869 18.7654321,10.425904 L18.7654321,14.5649184 C20.0892169,14.6659516 21.1358025,15.7695742 21.1358025,17.1147318 L21.1358025,18.6894906 C21.1358025,19.4507102 20.515181,20.0655738 19.7520797,20.0655738 L1.58125361,20.0655738 C0.816371832,20.0655738 0.197530864,19.4505119 0.197530864,18.6894906 L0.197530864,17.1147318 C0.197530864,15.7712055 1.24274848,14.6659959 2.56790123,14.5649138 L2.56790123,10.425904 C2.56790123,7.14301306 4.55701551,4.24100719 7.50959344,2.99675158 C7.58712636,1.32900838 8.97291714,0 10.6666667,0 Z M19.1604938,18.0983607 L19.1604938,17.1147318 C19.1604938,16.7903826 18.8930773,16.5245902 18.5670768,16.5245902 C17.5856417,16.5245902 16.7901235,15.7322933 16.7901235,14.7548011 L16.7901235,10.425904 C16.7901235,7.75551022 15.0513121,5.41959462 12.5381059,4.61752855 L11.8518519,4.39851702 L11.8518519,3.14421309 C11.8518519,2.49537895 11.3209472,1.96721311 10.6666667,1.96721311 C10.0131943,1.96721311 9.48148148,2.49552228 9.48148148,3.14421309 L9.48148148,4.39864603 L8.79543763,4.61775883 C6.28267247,5.42030089 4.54320988,7.75712581 4.54320988,10.425904 L4.54320988,14.7548011 C4.54320988,15.7319711 3.74641308,16.5245902 2.76625655,16.5245902 C2.43994141,16.5245902 2.17283951,16.7908597 2.17283951,17.1147318 L2.17283951,18.0983607 L19.1604938,18.0983607 Z M6.91358025,20.0655738 L8.88888889,20.0655738 C8.88888889,21.0433894 9.6848271,21.8360656 10.6666667,21.8360656 C11.6485062,21.8360656 12.4444444,21.0433894 12.4444444,20.0655738 L14.4197531,20.0655738 C14.4197531,22.1298512 12.7394391,23.8032787 10.6666667,23.8032787 C8.59389428,23.8032787 6.91358025,22.1298512 6.91358025,20.0655738 Z"></path>
                        </g>
                    </g>
                </g>
                <circle id="Oval" fill="#DD435F" cx="17.5" cy="5.5" r="5.5"></circle>
            </g>
        </g>
    </g>
</svg>