<?xml version="1.0" encoding="UTF-8"?>
<svg width="24px" height="22px" viewBox="0 0 24 22" version="1.1" xmlns="http://www.w3.org/2000/svg" xmlns:xlink="http://www.w3.org/1999/xlink">
    <title>754CD4ED-F0CC-4E26-85CE-120F5D0CF242@1x</title>
    <defs>
        <filter id="filter-1">
            <feColorMatrix in="SourceGraphic" type="matrix" values="0 0 0 0 0.113725 0 0 0 0 0.419608 0 0 0 0 0.650980 0 0 0 1.000000 0"></feColorMatrix>
        </filter>
        <filter id="filter-2">
            <feColorMatrix in="SourceGraphic" type="matrix" values="0 0 0 0 0.309804 0 0 0 0 0.654902 0 0 0 0 0.678431 0 0 0 1.000000 0"></feColorMatrix>
        </filter>
        <polygon id="path-3" points="0.000144240958 0.000248275862 23.4587586 0.000248275862 23.4587586 21.4835586 0.000144240958 21.4835586"></polygon>
    </defs>
    <g id="Online-Sale-VW-#V1.0-[revisoes]" stroke="none" stroke-width="1" fill="none" fill-rule="evenodd">
        <g id="home" transform="translate(-407.000000, -14.000000)">
            <g id="icon/vendas_menu" transform="translate(407.000000, 14.000000)" filter="url(#filter-1)">
                <g filter="url(#filter-2)" id="Group-3">
                    <g transform="translate(0.000000, -0.000000)">
                        <mask id="mask-4" fill="white">
                            <use xlink:href="#path-3"></use>
                        </mask>
                        <g id="Clip-2"></g>
                        <path d="M19.9150345,17.5914207 C18.8532414,15.5390069 17.0590345,13.9599724 14.8882759,13.1679724 C17.0515862,11.4275586 17.3950345,8.26369655 15.6554483,6.10038621 C13.9150345,3.93624828 10.7511724,3.5928 8.58786207,5.33238621 C6.42455172,7.0728 6.08110345,10.2366621 7.82068966,12.4008 C8.04827586,12.6830069 8.30482759,12.9403862 8.58786207,13.1679724 C6.41627586,13.9599724 4.62206897,15.5390069 3.56110345,17.5914207 C0.321931034,13.0810759 1.35227586,6.79969655 5.8617931,3.56052414 C7.57158621,2.33238621 9.624,1.67197241 11.7293793,1.67278072 C17.2816552,1.66204138 21.792,6.1550069 21.8027779,11.7072828 C21.8068966,13.8184552 21.1464828,15.8766621 19.9150345,17.5914207 M11.7293793,12.5646621 C9.87889655,12.5646621 8.37848276,11.0642483 8.37848276,9.21293793 C8.37848276,7.36245517 9.87889655,5.86204138 11.7293793,5.86204138 C13.5806897,5.86204138 15.0811034,7.36245517 15.0811034,9.21293793 C15.0811034,11.0642483 13.5806897,12.5646621 11.7293793,12.5646621 M19.430069,2.85128276 C14.9693793,-1.0392 8.10124138,-0.937406897 3.76303448,3.08962759 C-1.06510345,7.57266207 -1.24717241,15.0606621 3.21765517,19.7696276 C3.78868966,20.3712828 4.4102069,20.8943172 5.06896552,21.3445241 C5.60772414,21.7136276 6.3417931,21.3023172 6.3417931,20.6485241 L6.3417931,20.6361103 C6.3417931,20.3638345 6.20358621,20.114731 5.98013793,19.9591448 C5.55062069,19.6595586 5.13931034,19.3235586 4.75034483,18.9486621 C6.32772414,15.0945931 10.7296552,13.2474207 14.5845517,14.8248 C16.4565517,15.5903172 17.9428966,17.0766621 18.7084138,18.9486621 C18.3244138,19.3194207 17.918069,19.6529379 17.4943448,19.9500414 C17.2708966,20.1056276 17.1335172,20.3539034 17.1335172,20.6261793 C17.1335172,21.2824552 17.8725517,21.6929379 18.4129655,21.3196966 C18.8962759,20.9861793 19.3605517,20.6121103 19.8,20.1950069 C19.9456552,20.0568 20.0871724,19.9152828 20.2253793,19.7696276 C20.2253793,19.7696276 20.241931,19.778731 20.241931,19.7696276 C24.8126897,14.9481103 24.4874483,7.26314483 19.430069,2.85128276" id="Fill-1" fill="#69C9C8" mask="url(#mask-4)"></path>
                    </g>
                </g>
            </g>
        </g>
    </g>
</svg>