<?xml version="1.0" encoding="UTF-8"?>
<svg width="28px" height="33px" viewBox="0 0 28 33" version="1.1" xmlns="http://www.w3.org/2000/svg" xmlns:xlink="http://www.w3.org/1999/xlink">
    <title>C800AA49-6361-4C90-AB78-0340D541C7C7@1x</title>
    <g id="Index" stroke="none" stroke-width="1" fill="none" fill-rule="evenodd">
        <g id="Card/Seguro_Auto" transform="translate(-13.000000, -12.000000)" fill="#2097C8" fill-rule="nonzero" stroke="#2097C8" stroke-width="1.5">
            <g id="Shape-3" transform="translate(14.000000, 13.000000)">
                <path d="M25.9351087,5.38542145 C25.9351087,4.94879067 25.5803093,4.5948315 25.142642,4.5948315 C20.3085952,4.5948315 16.62521,3.20655555 13.5536091,0.224450259 C13.2458538,-0.0748167528 12.7550808,-0.0748167528 12.4473256,0.224450259 C9.37255482,3.20655555 5.69233951,4.5948315 0.858292688,4.5948315 C0.648117453,4.5948315 0.44655045,4.67812556 0.297934116,4.82638993 C0.149317783,4.97465431 0.0658259961,5.17574396 0.0658259961,5.38542145 C0.0658259961,6.16968668 0.0658259961,6.96660135 0.0341273285,7.83308793 C-0.118026276,15.691552 -0.314558016,26.440413 12.7389533,30.9562628 C12.9073097,31.0145791 13.0904551,31.0145791 13.2588115,30.9562628 C26.3123228,26.440413 26.1157911,15.691552 25.9668073,7.84257501 C25.9477881,6.9855755 25.9351087,6.17917376 25.9351087,5.38542145 Z M12.9988824,29.3719205 C1.27037537,25.1817938 1.47007697,15.5903565 1.61906071,7.86787389 C1.61906071,7.28283732 1.64124978,6.71993728 1.64758951,6.16968668 C6.25974566,6.03054285 9.8892431,4.65491633 13.0020523,1.87836443 C16.102182,4.65491633 19.7443589,6.03054285 24.356515,6.16968668 C24.356515,6.71993728 24.3723644,7.28283732 24.3850438,7.86787389 C24.5276878,15.5903565 24.7273894,25.1817938 12.9988824,29.3719205 Z M17.3447697,13.5126861 L12.009884,19.3504023 C12.0022412,19.3584881 11.9922744,19.3640121 11.9813552,19.3662141 C11.964914,19.3680174 11.9485534,19.3621882 11.936977,19.3504023 L8.6498252,15.5555706 C8.63448195,15.5360801 8.63448195,15.5086514 8.6498252,15.489161 L9.60078523,14.5404531 C9.6120428,14.5363419 9.62439619,14.5363419 9.63565376,14.5404531 C9.64496748,14.5377299 9.65486885,14.5377299 9.66418256,14.5404531 L11.461497,15.9445408 C11.7621699,16.1805839 12.1889552,16.168609 12.4758544,15.9160796 L16.3494316,12.500731 C16.3685164,12.4841716 16.3969139,12.4841716 16.4159988,12.500731 L17.3669588,13.4494389 C17.3734522,13.4610705 17.3747469,13.474889 17.3705267,13.4875196 C17.3663065,13.5001502 17.3569599,13.51043 17.3447697,13.5158485 L17.3447697,13.5126861 Z" id="Shape"></path>
            </g>
        </g>
    </g>
</svg>