<?xml version="1.0" encoding="UTF-8"?>
<svg width="23px" height="24px" viewBox="0 0 23 24" version="1.1" xmlns="http://www.w3.org/2000/svg" xmlns:xlink="http://www.w3.org/1999/xlink">
    <title>D6D63F6C-CC60-4440-AFE4-27175CDF67D9@1x</title>
    <defs>
        <filter id="filter-1">
            <feColorMatrix in="SourceGraphic" type="matrix" values="0 0 0 0 0.113725 0 0 0 0 0.419608 0 0 0 0 0.650980 0 0 0 1.000000 0"></feColorMatrix>
        </filter>
        <filter id="filter-2">
            <feColorMatrix in="SourceGraphic" type="matrix" values="0 0 0 0 0.309804 0 0 0 0 0.654902 0 0 0 0 0.678431 0 0 0 1.000000 0"></feColorMatrix>
        </filter>
        <polygon id="path-3" points="0.742374194 0.316645161 11.1065806 0.316645161 11.1065806 23.2258065 0.742374194 23.2258065"></polygon>
        <polygon id="path-5" points="0 0.316645161 10.3638194 0.316645161 10.3638194 23.2258065 0 23.2258065"></polygon>
    </defs>
    <g id="Online-Sale-VW-#V1.0-[revisoes]" stroke="none" stroke-width="1" fill="none" fill-rule="evenodd">
        <g id="home" transform="translate(-550.000000, -13.000000)">
            <g id="icon/vendas_menu" transform="translate(550.000000, 13.000000)" filter="url(#filter-1)">
                <g filter="url(#filter-2)" id="Group-9">
                    <g transform="translate(-0.000000, 0.000000)">
                        <path d="M11.3597419,15.6035613 C9.49703226,15.6035613 7.97264516,14.0791742 7.97264516,12.2164645 C7.97264516,10.3537548 9.49703226,8.83014194 11.3597419,8.83014194 C13.2224516,8.83014194 14.7468387,10.3537548 14.7468387,12.2164645 C14.7468387,14.0791742 13.2224516,15.6035613 11.3597419,15.6035613 M16.2464516,12.2164645 C16.2464516,9.5067871 14.0454194,7.32975484 11.3597419,7.32975484 C8.67483871,7.32975484 6.47303226,9.5067871 6.47303226,12.2164645 C6.47303226,14.9261419 8.65006452,17.1031742 11.3597419,17.1031742 C14.0454194,17.1031742 16.2464516,14.9261419 16.2464516,12.2164645" id="Fill-1" fill="#69C9C8"></path>
                        <g id="Group-5" transform="translate(11.612903, 0.457703)">
                            <mask id="mask-4" fill="white">
                                <use xlink:href="#path-3"></use>
                            </mask>
                            <g id="Clip-4"></g>
                            <path d="M9.94366452,13.5006968 L9.29024516,13.2343742 C8.6856,12.9928258 8.29850323,12.4121806 8.29850323,11.7347613 C8.29850323,11.0813419 8.6856,10.525471 9.29024516,10.2831484 L9.94366452,10.0168258 C10.4515355,9.82327742 10.8386323,9.41218065 11.0081806,8.90430968 C11.177729,8.39643871 11.1289548,7.83979355 10.8626323,7.35592258 L9.31501935,4.69501935 C9.04869677,4.23514839 8.58882581,3.89682581 8.05695484,3.80005161 C7.52430968,3.70327742 6.96843871,3.82405161 6.55656774,4.16237419 L5.97592258,4.62224516 C5.51682581,4.98534194 4.86340645,5.00934194 4.23476129,4.67101935 C3.65411613,4.33192258 3.33979355,3.75205161 3.43656774,3.17140645 L3.53334194,2.4452129 C3.60534194,1.91334194 3.46056774,1.35669677 3.09747097,0.9696 C2.73437419,0.558503226 2.22650323,0.316180645 1.69463226,0.316180645 L1.39424516,0.316180645 C1.03424516,0.316180645 0.742374194,0.608051613 0.742374194,0.968051613 L0.742374194,1.11901935 C0.742374194,1.47901935 1.03424516,1.77089032 1.39424516,1.77089032 C1.39966452,1.77089032 1.40353548,1.76779355 1.40895484,1.76779355 L1.69463226,1.76779355 C1.83940645,1.76779355 1.93618065,1.84056774 1.98495484,1.88856774 C2.03295484,1.93734194 2.08172903,2.03411613 2.08172903,2.17889032 L1.98495484,2.90508387 C1.81540645,4.11437419 2.42005161,5.27566452 3.55734194,5.92908387 C4.64585806,6.55772903 5.97592258,6.48495484 6.91966452,5.75953548 L7.50030968,5.29966452 C7.62108387,5.20289032 7.74263226,5.22689032 7.79063226,5.22689032 C7.86340645,5.25166452 7.96018065,5.27566452 8.03295484,5.39643871 L9.58056774,8.05811613 C9.65334194,8.17889032 9.62934194,8.29966452 9.60534194,8.37243871 C9.58056774,8.4452129 9.53256774,8.5419871 9.38701935,8.5899871 L8.73437419,8.85553548 C7.57308387,9.31540645 6.82289032,10.4526968 6.82289032,11.7347613 C6.82289032,12.9928258 7.57308387,14.1053419 8.73437419,14.5892129 L9.38701935,14.8555355 C9.53256774,14.9035355 9.58056774,15.0250839 9.60534194,15.0730839 C9.62934194,15.1698581 9.65334194,15.2914065 9.58056774,15.4121806 L8.03295484,18.0730839 C7.96018065,18.1938581 7.83940645,18.2426323 7.79063226,18.2426323 C7.74263226,18.2666323 7.59708387,18.2666323 7.50030968,18.1698581 L6.91966452,17.7099871 C5.97592258,16.9605677 4.64585806,16.9117935 3.53334194,17.5404387 C2.42005161,18.1698581 1.81540645,19.3551484 1.98495484,20.5404387 L2.08172903,21.2658581 C2.10572903,21.4114065 2.03295484,21.5081806 1.98495484,21.5561806 C1.93618065,21.6049548 1.83940645,21.677729 1.69463226,21.677729 L1.42366452,21.677729 C1.42134194,21.677729 1.41979355,21.6769548 1.41824516,21.6769548 C1.41592258,21.6769548 1.41437419,21.677729 1.41282581,21.677729 L1.39424516,21.677729 L1.39424516,21.6808258 C1.04585806,21.6939871 0.766374194,21.9765677 0.766374194,22.3280516 L0.766374194,22.5742452 C0.766374194,22.925729 1.04585806,23.2083097 1.39424516,23.221471 L1.39424516,23.2261161 L1.66985806,23.2261161 C2.20250323,23.2261161 2.73437419,22.9837935 3.07347097,22.5726968 C3.43656774,22.1616 3.58134194,21.6289548 3.50856774,21.0970839 L3.41179355,20.3716645 C3.33979355,19.7910194 3.65411613,19.1856 4.25876129,18.8472774 C4.83940645,18.5081806 5.49205161,18.5329548 5.97592258,18.8952774 L6.55656774,19.3551484 C6.99243871,19.6942452 7.52430968,19.8150194 8.05695484,19.7182452 C8.58882581,19.621471 9.04869677,19.2823742 9.31501935,18.8232774 L10.8626323,16.1623742 C11.1289548,15.7025032 11.177729,15.1218581 11.0081806,14.6132129 C10.8386323,14.1053419 10.4515355,13.6942452 9.94366452,13.5006968" id="Fill-3" fill="#69C9C8" mask="url(#mask-4)"></path>
                        </g>
                        <g id="Group-8" transform="translate(0.000000, 0.457703)">
                            <mask id="mask-6" fill="white">
                                <use xlink:href="#path-5"></use>
                            </mask>
                            <g id="Clip-7"></g>
                            <path d="M9.71272258,21.6766452 C9.71117419,21.6766452 9.70962581,21.6774194 9.70730323,21.6774194 L9.43710968,21.6774194 C9.29156129,21.6774194 9.1947871,21.6046452 9.1467871,21.5566452 C9.0980129,21.507871 9.0500129,21.4110968 9.0500129,21.2663226 L9.1467871,20.5409032 C9.31556129,19.3548387 8.71091613,18.1695484 7.57362581,17.516129 C7.06575484,17.2265806 6.53388387,17.0810323 5.97723871,17.0810323 C5.34859355,17.0810323 4.71917419,17.2745806 4.18730323,17.6856774 L3.60665806,18.1455484 C3.48588387,18.2423226 3.36433548,18.2183226 3.31633548,18.2183226 C3.24356129,18.2183226 3.1467871,18.1695484 3.0740129,18.0487742 L1.5264,15.387871 C1.45362581,15.2670968 1.47762581,15.1455484 1.5024,15.0735484 C1.5264,15.0007742 1.5744,14.904 1.71994839,14.8552258 L2.37259355,14.5896774 C3.53388387,14.1298065 4.28407742,12.9925161 4.28407742,11.7104516 C4.28407742,10.4523871 3.53388387,9.33987097 2.37259355,8.856 L1.71994839,8.59045161 C1.5744,8.54167742 1.5264,8.42090323 1.5024,8.37212903 C1.47762581,8.30012903 1.45362581,8.20335484 1.5264,8.05780645 L3.0740129,5.39690323 C3.1467871,5.27535484 3.26756129,5.22735484 3.31633548,5.22735484 C3.38910968,5.22735484 3.50988387,5.20335484 3.60665806,5.30012903 L4.18730323,5.75922581 C5.13104516,6.50941935 6.46110968,6.55819355 7.57362581,5.92877419 C8.68691613,5.30012903 9.29156129,4.11406452 9.1220129,2.90477419 L9.02523871,2.17935484 C9.00123871,2.03380645 9.0740129,1.93703226 9.1220129,1.88903226 C9.1947871,1.84025806 9.29156129,1.76825806 9.43710968,1.76825806 L9.6980129,1.76825806 C9.70343226,1.76825806 9.70730323,1.77135484 9.71272258,1.77135484 C10.0727226,1.77135484 10.3638194,1.47948387 10.3638194,1.11948387 L10.3638194,0.967741935 C10.3638194,0.608516129 10.0727226,0.316645161 9.71272258,0.316645161 L9.43710968,0.316645161 C8.90446452,0.316645161 8.37259355,0.558193548 8.03349677,0.969290323 C7.6704,1.38116129 7.52562581,1.91303226 7.5984,2.44567742 L7.69517419,3.17109677 C7.76717419,3.75174194 7.45285161,4.3563871 6.84820645,4.69470968 C6.26756129,5.03380645 5.61491613,5.00980645 5.13104516,4.64670968 L4.5504,4.18683871 C4.11452903,3.84851613 3.55788387,3.72774194 3.0500129,3.82451613 C2.51814194,3.92129032 2.05827097,4.2596129 1.79272258,4.71948387 L0.244335484,7.3803871 C-0.0219870968,7.84025806 -0.0707612903,8.42090323 0.0987870968,8.92877419 C0.268335484,9.43664516 0.655432258,9.84774194 1.16330323,10.0412903 L1.81672258,10.3076129 C2.42136774,10.5491613 2.80846452,11.1298065 2.80846452,11.8072258 C2.80846452,12.4606452 2.42136774,13.0165161 1.81672258,13.2588387 L1.16330323,13.5251613 C0.655432258,13.7187097 0.268335484,14.1298065 0.0987870968,14.6376774 C-0.0707612903,15.1455484 -0.0219870968,15.7021935 0.244335484,16.1860645 L1.79272258,18.8469677 C2.05827097,19.3068387 2.51814194,19.6451613 3.0500129,19.7419355 C3.58265806,19.8387097 4.13852903,19.7179355 4.5504,19.3796129 L5.13104516,18.9197419 C5.59014194,18.5566452 6.26756129,18.5326452 6.87220645,18.8709677 C7.45285161,19.2100645 7.76717419,19.7907097 7.6704,20.3713548 L7.57362581,21.0967742 C7.50162581,21.6286452 7.6464,22.1852903 8.00949677,22.5723871 C8.37259355,22.9834839 8.88046452,23.2258065 9.41233548,23.2258065 L9.71272258,23.2258065 C10.0727226,23.2258065 10.3638194,22.9339355 10.3638194,22.5739355 L10.3638194,22.3277419 C10.3638194,21.9677419 10.0727226,21.6766452 9.71272258,21.6766452" id="Fill-6" fill="#69C9C8" mask="url(#mask-6)"></path>
                        </g>
                    </g>
                </g>
            </g>
        </g>
    </g>
</svg>