<?xml version="1.0" encoding="UTF-8"?>
<svg width="36px" height="36px" viewBox="0 0 36 36" version="1.1" xmlns="http://www.w3.org/2000/svg" xmlns:xlink="http://www.w3.org/1999/xlink">
    <title>3A330E4A-7863-4187-8A8E-985D7738E81E@1x</title>
    <g id="Index" stroke="none" stroke-width="1" fill="none" fill-rule="evenodd">
        <g id="Card/Garantia_Estendida" transform="translate(-10.000000, -12.000000)" fill="#2097C8" fill-rule="nonzero" stroke="#2097C8">
            <g id="Group" transform="translate(11.000000, 13.000000)">
                <path d="M34,16.973172 C34,16.365071 33.75,15.7927407 33.25,15.3992635 L30.75,13.2887954 L31.8571429,10.2125197 C32.0714286,9.64018937 32,8.99631773 31.7142857,8.45975802 C31.3928571,7.92319832 30.8928571,7.56549185 30.2857143,7.45817991 L27.0714286,6.88584955 L26.5,3.66649132 C26.3928571,3.05839032 26.0357143,2.55760126 25.5,2.23566544 C24.9642857,1.91372962 24.3571429,1.87795897 23.75,2.09258285 L20.6785714,3.20147291 L18.5714286,0.697527617 C17.7857143,-0.232509206 16.2142857,-0.232509206 15.4285714,0.697527617 L13.3214286,3.20147291 L10.25,2.09258285 C9.67857143,1.87795897 9.03571429,1.94950026 8.5,2.23566544 C7.96428571,2.55760126 7.60714286,3.05839032 7.5,3.66649132 L6.92857143,6.88584955 L3.71428571,7.45817991 C3.10714286,7.56549185 2.60714286,7.92319832 2.28571429,8.45975802 C1.96428571,8.99631773 1.92857143,9.60441873 2.14285714,10.2125197 L3.25,13.2887954 L0.75,15.3992635 C0.285714286,15.7927407 0,16.365071 0,16.973172 C0,17.581273 0.25,18.1536034 0.75,18.5470805 L3.25,20.6575487 L2.14285714,23.7338243 C1.92857143,24.3061547 2,24.9500263 2.28571429,25.486586 C2.60714286,26.0231457 3.10714286,26.3808522 3.71428571,26.4881641 L6.92857143,27.0604945 L7.5,30.2798527 C7.60714286,30.8879537 7.96428571,31.3887428 8.5,31.7106786 C9.03571429,32.0326144 9.64285714,32.0683851 10.25,31.8537612 L13.3214286,30.7448711 L15.4285714,33.2488164 C15.8214286,33.7138348 16.3928571,34 17,34 C17.6071429,34 18.1785714,33.7496055 18.5714286,33.2488164 L20.6785714,30.7448711 L23.75,31.8537612 C24.3214286,32.0683851 24.9642857,31.9968438 25.5,31.7106786 C26.0357143,31.3887428 26.3928571,30.8879537 26.5,30.2798527 L27.0714286,27.0604945 L30.2857143,26.4881641 C30.8928571,26.3808522 31.3928571,26.0231457 31.7142857,25.486586 C32.0357143,24.9500263 32.0714286,24.3419253 31.8571429,23.7338243 L30.75,20.6575487 L33.25,18.5470805 C33.75,18.189374 34,17.6170437 34,16.973172 Z M29.4285714,19.0836402 C28.7857143,19.6559705 28.5357143,20.5502367 28.8214286,21.3729616 L29.9285714,24.4492372 L26.7142857,25.0215676 C25.8571429,25.1646502 25.2142857,25.8442925 25.0357143,26.702788 L24.4642857,29.9221462 L21.4285714,28.8132562 C20.6071429,28.527091 19.7142857,28.7774855 19.1428571,29.4213572 L17.0357143,31.9253025 L14.9285714,29.4213572 C14.5357143,28.9563388 13.9285714,28.7059442 13.3571429,28.7059442 C13.1071429,28.7059442 12.8928571,28.7417149 12.6785714,28.8132562 L9.60714286,29.9221462 L9.03571429,26.702788 C8.89285714,25.8442925 8.21428571,25.2004208 7.35714286,25.0215676 L4.14285714,24.4492372 L5.25,21.3729616 C5.53571429,20.5502367 5.28571429,19.6559705 4.64285714,19.0836402 L2.14285714,16.973172 L4.64285714,14.8627038 C5.28571429,14.2903735 5.53571429,13.3961073 5.25,12.5733824 L4.14285714,9.49710679 L7.35714286,8.92477643 C8.21428571,8.78169385 8.85714286,8.10205155 9.03571429,7.24355602 L9.60714286,4.02419779 L12.6785714,5.13308785 C13.5,5.41925302 14.3928571,5.1688585 14.9642857,4.52498685 L17.0714286,2.02104156 L19.1785714,4.52498685 C19.75,5.1688585 20.6428571,5.41925302 21.4642857,5.13308785 L24.5357143,4.02419779 L25.1071429,7.24355602 C25.25,8.10205155 25.9285714,8.7459232 26.7857143,8.92477643 L30,9.49710679 L28.8214286,12.6091531 C28.5357143,13.431878 28.7857143,14.3261441 29.4285714,14.8984745 L31.9285714,17.0089427 L29.4285714,19.0836402 Z" id="Shape"></path>
                <path d="M17.5,8 C12.278626,8 8,12.2423664 8,17.5 C8,22.721374 12.2423664,27 17.5,27 C22.7576336,27 27,22.721374 27,17.5 C27,12.2423664 22.721374,8 17.5,8 Z M17.5,24.860687 C13.4389313,24.860687 10.1030534,21.5610687 10.1030534,17.4637405 C10.1030534,13.4026718 13.4026718,10.0667939 17.5,10.0667939 C21.5973282,10.0667939 24.8969466,13.4026718 24.8969466,17.5 C24.8969466,21.5610687 21.5610687,24.860687 17.5,24.860687 Z" id="Shape"></path>
                <path d="M20.1055513,14.2926128 L16.5578696,17.6302661 L14.9175437,16.0615691 C14.4979254,15.6944272 13.8112773,15.6944272 13.3535119,16.0281925 C12.8957466,16.3953344 12.8957466,16.996112 13.2772177,17.3966304 L15.7186331,19.6996112 C15.9093687,19.8998704 16.2145456,20 16.5197225,20 L16.5197225,20 C16.8248994,20 17.1300763,19.8998704 17.3208119,19.6996112 L21.7077301,15.6276741 C22.1273484,15.2271557 22.0892013,14.6263781 21.6314359,14.2592363 C21.2118177,13.8920944 20.5251696,13.9254709 20.1055513,14.2926128 Z" id="Path"></path>
            </g>
        </g>
    </g>
</svg>